<svg xmlns="http://www.w3.org/2000/svg" viewBox="0 0 512 512" style="height: 512px; width: 512px;"><path d="M0 0h512v512H0z" fill="#000000" fill-opacity="0.01"></path><g class="" transform="translate(0,0)" style=""><g><path d="M248.91 50C260.792 49.994 272.785 51.018 284.767 53.13C369.974 68.155 436.844 135.025 451.869 220.232C466.892 305.44 426.925 391.149 351.995 434.41C319.213 453.337 282.741 462.406 246.532 461.963C199.977 461.393 153.857 445.098 116.575 413.813L147.43 377.045C198.38 419.795 270.398 426.095 327.996 392.842C385.593 359.588 416.148 294.065 404.599 228.568C393.049 163.071 341.927 111.948 276.429 100.4C224.773 91.292 173.106 108.38 137.259 144.262L185 192L57 192L57 64L103.34 110.342C141.758 71.962 194.17 50.03 248.91 50Z" class="selected" fill="#919191" fill-opacity="1"></path></g></g></svg>