<?xml version="1.0" standalone="no"?>
<!DOCTYPE svg PUBLIC "-//W3C//DTD SVG 20010904//EN"
 "http://www.w3.org/TR/2001/REC-SVG-20010904/DTD/svg10.dtd">
<svg version="1.0" xmlns="http://www.w3.org/2000/svg"
 width="1024.000000pt" height="1024.000000pt" viewBox="0 0 1024.000000 1024.000000"
 preserveAspectRatio="xMidYMid meet">
<metadata>
Created by potrace 1.16, written by Peter Selinger 2001-2019
</metadata>
<g transform="translate(0.000000,1024.000000) scale(0.100000,-0.100000)"
fill="#000000" stroke="none">
<path d="M4855 10214 c-1706 -92 -3237 -1016 -4117 -2484 -383 -640 -612
-1335 -695 -2115 -24 -226 -24 -768 1 -990 85 -788 310 -1474 694 -2115 670
-1119 1727 -1934 2967 -2289 878 -252 1794 -266 2680 -41 1126 286 2117 949
2819 1885 502 669 823 1434 955 2275 44 276 55 432 55 780 0 408 -22 638 -95
1010 -221 1127 -858 2190 -1754 2925 -794 651 -1711 1032 -2745 1140 -140 15
-621 27 -765 19z m545 -64 c1016 -62 1940 -400 2745 -1005 921 -692 1581
-1684 1859 -2792 235 -942 200 -1909 -104 -2823 -321 -965 -940 -1824 -1755
-2435 -274 -206 -500 -344 -817 -500 -556 -275 -1135 -435 -1788 -496 -174
-16 -666 -17 -840 0 -971 90 -1840 422 -2605 996 -1068 801 -1782 2011 -1964
3328 -35 253 -45 407 -45 697 0 290 10 444 45 697 198 1434 1023 2731 2244
3525 895 583 1975 871 3025 808z"/>
</g>
</svg>
